<?xml version="1.0" encoding="utf-8" standalone="no"?>
<!DOCTYPE svg PUBLIC "-//W3C//DTD SVG 1.1//EN"
  "http://www.w3.org/Graphics/SVG/1.1/DTD/svg11.dtd">
<svg xmlns:xlink="http://www.w3.org/1999/xlink" width="412.2pt" height="132.48pt" viewBox="0 0 412.2 132.48" xmlns="http://www.w3.org/2000/svg" version="1.1">
 <metadata>
  <rdf:RDF xmlns:dc="http://purl.org/dc/elements/1.1/" xmlns:cc="http://creativecommons.org/ns#" xmlns:rdf="http://www.w3.org/1999/02/22-rdf-syntax-ns#">
   <cc:Work>
    <dc:type rdf:resource="http://purl.org/dc/dcmitype/StillImage"/>
    <dc:date>2026-07-09T00:11:22.267948</dc:date>
    <dc:format>image/svg+xml</dc:format>
    <dc:creator>
     <cc:Agent>
      <dc:title>Matplotlib v3.10.9, https://matplotlib.org/</dc:title>
     </cc:Agent>
    </dc:creator>
   </cc:Work>
  </rdf:RDF>
 </metadata>
 <defs>
  <style type="text/css">*{stroke-linejoin: round; stroke-linecap: butt}</style>
 </defs>
 <g id="figure_1">
  <g id="patch_1">
   <path d="M 0 132.48 
L 412.2 132.48 
L 412.2 0 
L 0 0 
z
" style="fill: #ffffff"/>
  </g>
  <g id="axes_1">
   <g id="line2d_1">
    <path d="M 41.315625 66.24 
L 370.884375 66.24 
" clip-path="url(#p97404b29ec)" style="fill: none; stroke: #6b7280; stroke-width: 1.6; stroke-linecap: square"/>
   </g>
   <g id="patch_2">
    <path d="M 59.625 70.078154 
C 61.081711 70.078154 62.478955 69.673742 63.509005 68.953985 
C 64.539055 68.234227 65.117813 67.25789 65.117813 66.24 
C 65.117813 65.22211 64.539055 64.245773 63.509005 63.526015 
C 62.478955 62.806258 61.081711 62.401846 59.625 62.401846 
C 58.168289 62.401846 56.771045 62.806258 55.740995 63.526015 
C 54.710945 64.245773 54.132188 65.22211 54.132188 66.24 
C 54.132188 67.25789 54.710945 68.234227 55.740995 68.953985 
C 56.771045 69.673742 58.168289 70.078154 59.625 70.078154 
z
" clip-path="url(#p97404b29ec)" style="fill: #2563eb; stroke: #ffffff; stroke-width: 1.2; stroke-linejoin: miter"/>
   </g>
   <g id="patch_3">
    <path d="M 157.275 70.078154 
C 158.731711 70.078154 160.128955 69.673742 161.159005 68.953985 
C 162.189055 68.234227 162.767813 67.25789 162.767813 66.24 
C 162.767813 65.22211 162.189055 64.245773 161.159005 63.526015 
C 160.128955 62.806258 158.731711 62.401846 157.275 62.401846 
C 155.818289 62.401846 154.421045 62.806258 153.390995 63.526015 
C 152.360945 64.245773 151.782188 65.22211 151.782188 66.24 
C 151.782188 67.25789 152.360945 68.234227 153.390995 68.953985 
C 154.421045 69.673742 155.818289 70.078154 157.275 70.078154 
z
" clip-path="url(#p97404b29ec)" style="fill: #2563eb; stroke: #ffffff; stroke-width: 1.2; stroke-linejoin: miter"/>
   </g>
   <g id="patch_4">
    <path d="M 254.925 70.078154 
C 256.381711 70.078154 257.778955 69.673742 258.809005 68.953985 
C 259.839055 68.234227 260.417813 67.25789 260.417813 66.24 
C 260.417813 65.22211 259.839055 64.245773 258.809005 63.526015 
C 257.778955 62.806258 256.381711 62.401846 254.925 62.401846 
C 253.468289 62.401846 252.071045 62.806258 251.040995 63.526015 
C 250.010945 64.245773 249.432187 65.22211 249.432187 66.24 
C 249.432187 67.25789 250.010945 68.234227 251.040995 68.953985 
C 252.071045 69.673742 253.468289 70.078154 254.925 70.078154 
z
" clip-path="url(#p97404b29ec)" style="fill: #2563eb; stroke: #ffffff; stroke-width: 1.2; stroke-linejoin: miter"/>
   </g>
   <g id="patch_5">
    <path d="M 352.575 70.078154 
C 354.031711 70.078154 355.428955 69.673742 356.459005 68.953985 
C 357.489055 68.234227 358.067813 67.25789 358.067813 66.24 
C 358.067813 65.22211 357.489055 64.245773 356.459005 63.526015 
C 355.428955 62.806258 354.031711 62.401846 352.575 62.401846 
C 351.118289 62.401846 349.721045 62.806258 348.690995 63.526015 
C 347.660945 64.245773 347.082188 65.22211 347.082188 66.24 
C 347.082188 67.25789 347.660945 68.234227 348.690995 68.953985 
C 349.721045 69.673742 351.118289 70.078154 352.575 70.078154 
z
" clip-path="url(#p97404b29ec)" style="fill: #2563eb; stroke: #ffffff; stroke-width: 1.2; stroke-linejoin: miter"/>
   </g>
   <g id="text_1">
    <text style="font-weight: 700; font-size: 10.5px; font-family: 'Microsoft JhengHei', 'Segoe UI Emoji', sans-serif; text-anchor: middle; fill: #1f2937" x="206.1" y="27.722668" transform="rotate(-0 206.1 27.722668)">模型版本迭代時間線</text>
   </g>
   <g id="text_2">
    <text style="font-weight: 700; font-size: 8.5px; font-family: 'Microsoft JhengHei', 'Segoe UI Emoji', sans-serif; text-anchor: middle; fill: #2563eb" x="59.625" y="51.313846" transform="rotate(-0 59.625 51.313846)">v1</text>
   </g>
   <g id="text_3">
    <text style="font-size: 7.8px; font-family: 'Microsoft JhengHei', 'Segoe UI Emoji', sans-serif; text-anchor: middle; fill: #374151" x="59.625" y="87.401279" transform="rotate(-0 59.625 87.401279)">初版發布</text>
   </g>
   <g id="text_4">
    <text style="font-weight: 700; font-size: 8.5px; font-family: 'Microsoft JhengHei', 'Segoe UI Emoji', sans-serif; text-anchor: middle; fill: #2563eb" x="157.275" y="51.313846" transform="rotate(-0 157.275 51.313846)">v2</text>
   </g>
   <g id="text_5">
    <text style="font-size: 7.8px; font-family: 'Microsoft JhengHei', 'Segoe UI Emoji', sans-serif; text-anchor: middle; fill: #374151" x="157.275" y="87.401279" transform="rotate(-0 157.275 87.401279)">效能提升</text>
   </g>
   <g id="text_6">
    <text style="font-weight: 700; font-size: 8.5px; font-family: 'Microsoft JhengHei', 'Segoe UI Emoji', sans-serif; text-anchor: middle; fill: #2563eb" x="254.925" y="51.313846" transform="rotate(-0 254.925 51.313846)">v3</text>
   </g>
   <g id="text_7">
    <text style="font-size: 7.8px; font-family: 'Microsoft JhengHei', 'Segoe UI Emoji', sans-serif; text-anchor: middle; fill: #374151" x="254.925" y="87.401279" transform="rotate(-0 254.925 87.401279)">中文加強</text>
   </g>
   <g id="text_8">
    <text style="font-weight: 700; font-size: 8.5px; font-family: 'Microsoft JhengHei', 'Segoe UI Emoji', sans-serif; text-anchor: middle; fill: #2563eb" x="352.575" y="51.313846" transform="rotate(-0 352.575 51.313846)">v4</text>
   </g>
   <g id="text_9">
    <text style="font-size: 7.8px; font-family: 'Microsoft JhengHei', 'Segoe UI Emoji', sans-serif; text-anchor: middle; fill: #374151" x="352.575" y="87.401279" transform="rotate(-0 352.575 87.401279)">目前版本</text>
   </g>
  </g>
 </g>
 <defs>
  <clipPath id="p97404b29ec">
   <rect x="10.8" y="10.8" width="390.6" height="110.88"/>
  </clipPath>
 </defs>
</svg>
