<?xml version="1.0" encoding="utf-8" standalone="no"?>
<!DOCTYPE svg PUBLIC "-//W3C//DTD SVG 1.1//EN"
  "http://www.w3.org/Graphics/SVG/1.1/DTD/svg11.dtd">
<svg xmlns:xlink="http://www.w3.org/1999/xlink" width="412.2pt" height="149.112pt" viewBox="0 0 412.2 149.112" xmlns="http://www.w3.org/2000/svg" version="1.1">
 <metadata>
  <rdf:RDF xmlns:dc="http://purl.org/dc/elements/1.1/" xmlns:cc="http://creativecommons.org/ns#" xmlns:rdf="http://www.w3.org/1999/02/22-rdf-syntax-ns#">
   <cc:Work>
    <dc:type rdf:resource="http://purl.org/dc/dcmitype/StillImage"/>
    <dc:date>2026-07-09T00:11:22.771897</dc:date>
    <dc:format>image/svg+xml</dc:format>
    <dc:creator>
     <cc:Agent>
      <dc:title>Matplotlib v3.10.9, https://matplotlib.org/</dc:title>
     </cc:Agent>
    </dc:creator>
   </cc:Work>
  </rdf:RDF>
 </metadata>
 <defs>
  <style type="text/css">*{stroke-linejoin: round; stroke-linecap: butt}</style>
 </defs>
 <g id="figure_1">
  <g id="patch_1">
   <path d="M 0 149.112 
L 412.2 149.112 
L 412.2 0 
L 0 0 
z
" style="fill: #ffffff"/>
  </g>
  <g id="axes_1">
   <g id="patch_2">
    <path d="M 75.9 97.74 
C 84.532361 97.74 92.812325 94.381133 98.916326 88.40315 
C 105.020327 82.425167 108.45 74.316144 108.45 65.862 
C 108.45 57.407856 105.020327 49.298833 98.916326 43.32085 
C 92.812325 37.342867 84.532361 33.984 75.9 33.984 
C 67.267639 33.984 58.987675 37.342867 52.883674 43.32085 
C 46.779673 49.298833 43.35 57.407856 43.35 65.862 
C 43.35 74.316144 46.779673 82.425167 52.883674 88.40315 
C 58.987675 94.381133 67.267639 97.74 75.9 97.74 
z
" clip-path="url(#pce8b290c85)" style="fill: #ffffff; stroke: #2563eb; stroke-width: 1.6; stroke-linejoin: miter"/>
   </g>
   <g id="patch_3">
    <path d="M 206.1 97.74 
C 214.732361 97.74 223.012325 94.381133 229.116326 88.40315 
C 235.220327 82.425167 238.65 74.316144 238.65 65.862 
C 238.65 57.407856 235.220327 49.298833 229.116326 43.32085 
C 223.012325 37.342867 214.732361 33.984 206.1 33.984 
C 197.467639 33.984 189.187675 37.342867 183.083674 43.32085 
C 176.979673 49.298833 173.55 57.407856 173.55 65.862 
C 173.55 74.316144 176.979673 82.425167 183.083674 88.40315 
C 189.187675 94.381133 197.467639 97.74 206.1 97.74 
z
" clip-path="url(#pce8b290c85)" style="fill: #ffffff; stroke: #16a34a; stroke-width: 1.6; stroke-linejoin: miter"/>
   </g>
   <g id="patch_4">
    <path d="M 336.3 97.74 
C 344.932361 97.74 353.212325 94.381133 359.316326 88.40315 
C 365.420327 82.425167 368.85 74.316144 368.85 65.862 
C 368.85 57.407856 365.420327 49.298833 359.316326 43.32085 
C 353.212325 37.342867 344.932361 33.984 336.3 33.984 
C 327.667639 33.984 319.387675 37.342867 313.283674 43.32085 
C 307.179673 49.298833 303.75 57.407856 303.75 65.862 
C 303.75 74.316144 307.179673 82.425167 313.283674 88.40315 
C 319.387675 94.381133 327.667639 97.74 336.3 97.74 
z
" clip-path="url(#pce8b290c85)" style="fill: #ffffff; stroke: #ea580c; stroke-width: 1.6; stroke-linejoin: miter"/>
   </g>
   <g id="text_1">
    <text style="font-weight: 700; font-size: 10.5px; font-family: 'Microsoft JhengHei', 'Segoe UI Emoji', sans-serif; text-anchor: middle; fill: #1f2937" x="206.1" y="30.785438" transform="rotate(-0 206.1 30.785438)">掃地機器人系統架構</text>
   </g>
   <g id="text_2">
    <text style="font-size: 16px; font-family: 'Microsoft JhengHei', 'Segoe UI Emoji', sans-serif; text-anchor: middle" x="75.9" y="67.37025" transform="rotate(-0 75.9 67.37025)">📡</text>
   </g>
   <g id="text_3">
    <text style="font-size: 8.3px; font-family: 'Microsoft JhengHei', 'Segoe UI Emoji', sans-serif; text-anchor: middle; fill: #374151" x="75.9" y="111.617742" transform="rotate(-0 75.9 111.617742)">感測器</text>
   </g>
   <g id="text_4">
    <text style="font-size: 16px; font-family: 'Microsoft JhengHei', 'Segoe UI Emoji', sans-serif; text-anchor: middle" x="206.1" y="67.37025" transform="rotate(-0 206.1 67.37025)">🧠</text>
   </g>
   <g id="text_5">
    <text style="font-size: 8.3px; font-family: 'Microsoft JhengHei', 'Segoe UI Emoji', sans-serif; text-anchor: middle; fill: #374151" x="206.1" y="111.617742" transform="rotate(-0 206.1 111.617742)">控制系統</text>
   </g>
   <g id="text_6">
    <text style="font-size: 16px; font-family: 'Microsoft JhengHei', 'Segoe UI Emoji', sans-serif; text-anchor: middle" x="336.3" y="67.37025" transform="rotate(-0 336.3 67.37025)">⚙️</text>
   </g>
   <g id="text_7">
    <text style="font-size: 8.3px; font-family: 'Microsoft JhengHei', 'Segoe UI Emoji', sans-serif; text-anchor: middle; fill: #374151" x="336.3" y="111.617742" transform="rotate(-0 336.3 111.617742)">執行器（輪子/馬達）</text>
   </g>
  </g>
 </g>
 <defs>
  <clipPath id="pce8b290c85">
   <rect x="10.8" y="10.8" width="390.6" height="127.512"/>
  </clipPath>
 </defs>
</svg>
