<?xml version="1.0" encoding="utf-8" standalone="no"?>
<!DOCTYPE svg PUBLIC "-//W3C//DTD SVG 1.1//EN"
  "http://www.w3.org/Graphics/SVG/1.1/DTD/svg11.dtd">
<svg xmlns:xlink="http://www.w3.org/1999/xlink" width="389.88pt" height="195.225437pt" viewBox="0 0 389.88 195.225437" xmlns="http://www.w3.org/2000/svg" version="1.1">
 <metadata>
  <rdf:RDF xmlns:dc="http://purl.org/dc/elements/1.1/" xmlns:cc="http://creativecommons.org/ns#" xmlns:rdf="http://www.w3.org/1999/02/22-rdf-syntax-ns#">
   <cc:Work>
    <dc:type rdf:resource="http://purl.org/dc/dcmitype/StillImage"/>
    <dc:date>2026-07-09T00:11:11.365425</dc:date>
    <dc:format>image/svg+xml</dc:format>
    <dc:creator>
     <cc:Agent>
      <dc:title>Matplotlib v3.10.9, https://matplotlib.org/</dc:title>
     </cc:Agent>
    </dc:creator>
   </cc:Work>
  </rdf:RDF>
 </metadata>
 <defs>
  <style type="text/css">*{stroke-linejoin: round; stroke-linecap: butt}</style>
 </defs>
 <g id="figure_1">
  <g id="patch_1">
   <path d="M 0 195.225437 
L 389.88 195.225437 
L 389.88 0 
L 0 0 
z
" style="fill: #ffffff"/>
  </g>
  <g id="axes_1">
   <g id="table_1">
    <g id="patch_2">
     <path d="M 10.8 85.209437 
L 133.56 85.209437 
L 133.56 63.609437 
L 10.8 63.609437 
z
" style="fill: #dbeafe; stroke: #d1d5db; stroke-linejoin: miter"/>
    </g>
    <g id="text_1">
     <text style="font-weight: 700; font-size: 9px; font-family: 'Microsoft JhengHei', 'Segoe UI Emoji', sans-serif; text-anchor: middle; fill: #1e3a8a" x="72.18" y="76.887953" transform="rotate(-0 72.18 76.887953)">現場</text>
    </g>
    <g id="patch_3">
     <path d="M 133.56 85.209437 
L 256.32 85.209437 
L 256.32 63.609437 
L 133.56 63.609437 
z
" style="fill: #dbeafe; stroke: #d1d5db; stroke-linejoin: miter"/>
    </g>
    <g id="text_2">
     <text style="font-weight: 700; font-size: 9px; font-family: 'Microsoft JhengHei', 'Segoe UI Emoji', sans-serif; text-anchor: middle; fill: #1e3a8a" x="194.94" y="76.887953" transform="rotate(-0 194.94 76.887953)">機器人接手</text>
    </g>
    <g id="patch_4">
     <path d="M 256.32 85.209437 
L 379.08 85.209437 
L 379.08 63.609437 
L 256.32 63.609437 
z
" style="fill: #dbeafe; stroke: #d1d5db; stroke-linejoin: miter"/>
    </g>
    <g id="text_3">
     <text style="font-weight: 700; font-size: 9px; font-family: 'Microsoft JhengHei', 'Segoe UI Emoji', sans-serif; text-anchor: middle; fill: #1e3a8a" x="317.7" y="76.887953" transform="rotate(-0 317.7 76.887953)">仍由人力負責</text>
    </g>
    <g id="patch_5">
     <path d="M 10.8 106.809438 
L 133.56 106.809438 
L 133.56 85.209438 
L 10.8 85.209438 
z
" style="fill: #ffffff; stroke: #d1d5db; stroke-linejoin: miter"/>
    </g>
    <g id="text_4">
     <text style="font-size: 9px; font-family: 'Microsoft JhengHei', 'Segoe UI Emoji', sans-serif; text-anchor: middle" x="72.18" y="98.487953" transform="rotate(-0 72.18 98.487953)">餐飲</text>
    </g>
    <g id="patch_6">
     <path d="M 133.56 106.809438 
L 256.32 106.809438 
L 256.32 85.209438 
L 133.56 85.209438 
z
" style="fill: #ffffff; stroke: #d1d5db; stroke-linejoin: miter"/>
    </g>
    <g id="text_5">
     <text style="font-size: 9px; font-family: 'Microsoft JhengHei', 'Segoe UI Emoji', sans-serif; text-anchor: middle" x="194.94" y="98.487953" transform="rotate(-0 194.94 98.487953)">出餐/傳菜</text>
    </g>
    <g id="patch_7">
     <path d="M 256.32 106.809438 
L 379.08 106.809438 
L 379.08 85.209438 
L 256.32 85.209438 
z
" style="fill: #ffffff; stroke: #d1d5db; stroke-linejoin: miter"/>
    </g>
    <g id="text_6">
     <text style="font-size: 9px; font-family: 'Microsoft JhengHei', 'Segoe UI Emoji', sans-serif; text-anchor: middle" x="317.7" y="98.487953" transform="rotate(-0 317.7 98.487953)">客訴/臨場應變</text>
    </g>
    <g id="patch_8">
     <path d="M 10.8 128.409437 
L 133.56 128.409437 
L 133.56 106.809438 
L 10.8 106.809438 
z
" style="fill: #f9fafb; stroke: #d1d5db; stroke-linejoin: miter"/>
    </g>
    <g id="text_7">
     <text style="font-size: 9px; font-family: 'Microsoft JhengHei', 'Segoe UI Emoji', sans-serif; text-anchor: middle" x="72.18" y="120.087953" transform="rotate(-0 72.18 120.087953)">零售</text>
    </g>
    <g id="patch_9">
     <path d="M 133.56 128.409437 
L 256.32 128.409437 
L 256.32 106.809438 
L 133.56 106.809438 
z
" style="fill: #f9fafb; stroke: #d1d5db; stroke-linejoin: miter"/>
    </g>
    <g id="text_8">
     <text style="font-size: 9px; font-family: 'Microsoft JhengHei', 'Segoe UI Emoji', sans-serif; text-anchor: middle" x="194.94" y="120.087953" transform="rotate(-0 194.94 120.087953)">補貨/盤點</text>
    </g>
    <g id="patch_10">
     <path d="M 256.32 128.409437 
L 379.08 128.409437 
L 379.08 106.809438 
L 256.32 106.809438 
z
" style="fill: #f9fafb; stroke: #d1d5db; stroke-linejoin: miter"/>
    </g>
    <g id="text_9">
     <text style="font-size: 9px; font-family: 'Microsoft JhengHei', 'Segoe UI Emoji', sans-serif; text-anchor: middle" x="317.7" y="120.087953" transform="rotate(-0 317.7 120.087953)">顧客服務</text>
    </g>
    <g id="patch_11">
     <path d="M 10.8 150.009437 
L 133.56 150.009437 
L 133.56 128.409437 
L 10.8 128.409437 
z
" style="fill: #ffffff; stroke: #d1d5db; stroke-linejoin: miter"/>
    </g>
    <g id="text_10">
     <text style="font-size: 9px; font-family: 'Microsoft JhengHei', 'Segoe UI Emoji', sans-serif; text-anchor: middle" x="72.18" y="141.687953" transform="rotate(-0 72.18 141.687953)">照護</text>
    </g>
    <g id="patch_12">
     <path d="M 133.56 150.009437 
L 256.32 150.009437 
L 256.32 128.409437 
L 133.56 128.409437 
z
" style="fill: #ffffff; stroke: #d1d5db; stroke-linejoin: miter"/>
    </g>
    <g id="text_11">
     <text style="font-size: 9px; font-family: 'Microsoft JhengHei', 'Segoe UI Emoji', sans-serif; text-anchor: middle" x="194.94" y="141.687953" transform="rotate(-0 194.94 141.687953)">生理監測/移動輔助</text>
    </g>
    <g id="patch_13">
     <path d="M 256.32 150.009437 
L 379.08 150.009437 
L 379.08 128.409437 
L 256.32 128.409437 
z
" style="fill: #ffffff; stroke: #d1d5db; stroke-linejoin: miter"/>
    </g>
    <g id="text_12">
     <text style="font-size: 9px; font-family: 'Microsoft JhengHei', 'Segoe UI Emoji', sans-serif; text-anchor: middle" x="317.7" y="141.687953" transform="rotate(-0 317.7 141.687953)">情感支持/複雜判斷</text>
    </g>
   </g>
   <g id="text_13">
    <text style="font-weight: 700; font-size: 10.5px; font-family: 'Microsoft JhengHei', 'Segoe UI Emoji', sans-serif; text-anchor: middle; fill: #1f2937" x="194.94" y="19.193437" transform="rotate(-0 194.94 19.193437)">三服務現場：機器人任務 vs 人力任務</text>
   </g>
  </g>
 </g>
</svg>
