<?xml version="1.0" encoding="utf-8" standalone="no"?>
<!DOCTYPE svg PUBLIC "-//W3C//DTD SVG 1.1//EN"
  "http://www.w3.org/Graphics/SVG/1.1/DTD/svg11.dtd">
<svg xmlns:xlink="http://www.w3.org/1999/xlink" width="373.14pt" height="154.656pt" viewBox="0 0 373.14 154.656" xmlns="http://www.w3.org/2000/svg" version="1.1">
 <metadata>
  <rdf:RDF xmlns:dc="http://purl.org/dc/elements/1.1/" xmlns:cc="http://creativecommons.org/ns#" xmlns:rdf="http://www.w3.org/1999/02/22-rdf-syntax-ns#">
   <cc:Work>
    <dc:type rdf:resource="http://purl.org/dc/dcmitype/StillImage"/>
    <dc:date>2026-07-09T00:11:11.204348</dc:date>
    <dc:format>image/svg+xml</dc:format>
    <dc:creator>
     <cc:Agent>
      <dc:title>Matplotlib v3.10.9, https://matplotlib.org/</dc:title>
     </cc:Agent>
    </dc:creator>
   </cc:Work>
  </rdf:RDF>
 </metadata>
 <defs>
  <style type="text/css">*{stroke-linejoin: round; stroke-linecap: butt}</style>
 </defs>
 <g id="figure_1">
  <g id="patch_1">
   <path d="M 0 154.656 
L 373.14 154.656 
L 373.14 0 
L 0 0 
z
" style="fill: #ffffff"/>
  </g>
  <g id="axes_1">
   <g id="patch_2">
    <path d="M 23.1039 103.1076 
L 115.6761 103.1076 
Q 120.3633 103.1076 120.3633 99.7812 
L 120.3633 54.8748 
Q 120.3633 51.5484 115.6761 51.5484 
L 23.1039 51.5484 
Q 18.4167 51.5484 18.4167 54.8748 
L 18.4167 99.7812 
Q 18.4167 103.1076 23.1039 103.1076 
z
" clip-path="url(#p986f0f5c68)" style="fill: #f3f4f6; stroke: #2563eb; stroke-width: 1.4; stroke-linejoin: miter"/>
   </g>
   <g id="patch_3">
    <path d="M 121.195518 77.328 
Q 127.980183 77.328 133.1996 77.328 
" clip-path="url(#p986f0f5c68)" style="fill: none; stroke: #555555; stroke-width: 1.4; stroke-linecap: round"/>
    <path d="M 127.5996 74.528 
L 133.1996 77.328 
L 127.5996 80.128 
z
" clip-path="url(#p986f0f5c68)" style="fill: #555555; stroke: #555555; stroke-width: 1.4; stroke-linecap: round"/>
   </g>
   <g id="patch_4">
    <path d="M 140.2839 103.1076 
L 232.8561 103.1076 
Q 237.5433 103.1076 237.5433 99.7812 
L 237.5433 54.8748 
Q 237.5433 51.5484 232.8561 51.5484 
L 140.2839 51.5484 
Q 135.5967 51.5484 135.5967 54.8748 
L 135.5967 99.7812 
Q 135.5967 103.1076 140.2839 103.1076 
z
" clip-path="url(#p986f0f5c68)" style="fill: #f3f4f6; stroke: #16a34a; stroke-width: 1.4; stroke-linejoin: miter"/>
   </g>
   <g id="patch_5">
    <path d="M 238.375518 77.328 
Q 245.160183 77.328 250.3796 77.328 
" clip-path="url(#p986f0f5c68)" style="fill: none; stroke: #555555; stroke-width: 1.4; stroke-linecap: round"/>
    <path d="M 244.7796 74.528 
L 250.3796 77.328 
L 244.7796 80.128 
z
" clip-path="url(#p986f0f5c68)" style="fill: #555555; stroke: #555555; stroke-width: 1.4; stroke-linecap: round"/>
   </g>
   <g id="patch_6">
    <path d="M 257.4639 103.1076 
L 350.0361 103.1076 
Q 354.7233 103.1076 354.7233 99.7812 
L 354.7233 54.8748 
Q 354.7233 51.5484 350.0361 51.5484 
L 257.4639 51.5484 
Q 252.7767 51.5484 252.7767 54.8748 
L 252.7767 99.7812 
Q 252.7767 103.1076 257.4639 103.1076 
z
" clip-path="url(#p986f0f5c68)" style="fill: #f3f4f6; stroke: #ea580c; stroke-width: 1.4; stroke-linejoin: miter"/>
   </g>
   <g id="text_1">
    <text style="font-weight: 700; font-size: 10.5px; font-family: 'Microsoft JhengHei', 'Segoe UI Emoji', sans-serif; text-anchor: middle; fill: #1f2937" x="186.57" y="29.588437" transform="rotate(-0 186.57 29.588437)">機器人「猶豫」背後的決策機制</text>
   </g>
   <g id="text_2">
    <text style="font-size: 8.8px; font-family: 'Microsoft JhengHei', 'Segoe UI Emoji', sans-serif; fill: #1f2937" transform="translate(51.79 74.436925)">整合多重</text>
    <text style="font-size: 8.8px; font-family: 'Microsoft JhengHei', 'Segoe UI Emoji', sans-serif; fill: #1f2937" transform="translate(47.39 85.06595)">感測器資料</text>
   </g>
   <g id="text_3">
    <text style="font-size: 8.8px; font-family: 'Microsoft JhengHei', 'Segoe UI Emoji', sans-serif; fill: #1f2937" transform="translate(164.57 74.436925)">計算信賴度</text>
    <text style="font-size: 8.8px; font-family: 'Microsoft JhengHei', 'Segoe UI Emoji', sans-serif; fill: #1f2937" transform="translate(177.77 85.06595)">分數</text>
   </g>
   <g id="text_4">
    <text style="font-size: 8.8px; font-family: 'Microsoft JhengHei', 'Segoe UI Emoji', sans-serif; fill: #1f2937" transform="translate(286.15 74.436925)">超過門檻</text>
    <text style="font-size: 8.8px; font-family: 'Microsoft JhengHei', 'Segoe UI Emoji', sans-serif; fill: #1f2937" transform="translate(284.315062 85.06595)">執行/暫停</text>
   </g>
  </g>
 </g>
 <defs>
  <clipPath id="p986f0f5c68">
   <rect x="10.8" y="10.8" width="351.54" height="133.056"/>
  </clipPath>
 </defs>
</svg>
