<?xml version="1.0" encoding="utf-8" standalone="no"?>
<!DOCTYPE svg PUBLIC "-//W3C//DTD SVG 1.1//EN"
  "http://www.w3.org/Graphics/SVG/1.1/DTD/svg11.dtd">
<svg xmlns:xlink="http://www.w3.org/1999/xlink" width="479.16pt" height="154.656pt" viewBox="0 0 479.16 154.656" xmlns="http://www.w3.org/2000/svg" version="1.1">
 <metadata>
  <rdf:RDF xmlns:dc="http://purl.org/dc/elements/1.1/" xmlns:cc="http://creativecommons.org/ns#" xmlns:rdf="http://www.w3.org/1999/02/22-rdf-syntax-ns#">
   <cc:Work>
    <dc:type rdf:resource="http://purl.org/dc/dcmitype/StillImage"/>
    <dc:date>2026-07-09T00:11:11.081090</dc:date>
    <dc:format>image/svg+xml</dc:format>
    <dc:creator>
     <cc:Agent>
      <dc:title>Matplotlib v3.10.9, https://matplotlib.org/</dc:title>
     </cc:Agent>
    </dc:creator>
   </cc:Work>
  </rdf:RDF>
 </metadata>
 <defs>
  <style type="text/css">*{stroke-linejoin: round; stroke-linecap: butt}</style>
 </defs>
 <g id="figure_1">
  <g id="patch_1">
   <path d="M 0 154.656 
L 479.16 154.656 
L 479.16 0 
L 0 0 
z
" style="fill: #ffffff"/>
  </g>
  <g id="axes_1">
   <g id="patch_2">
    <path d="M 22.81095 103.1076 
L 113.17905 103.1076 
Q 117.75465 103.1076 117.75465 99.7812 
L 117.75465 54.8748 
Q 117.75465 51.5484 113.17905 51.5484 
L 22.81095 51.5484 
Q 18.23535 51.5484 18.23535 54.8748 
L 18.23535 99.7812 
Q 18.23535 103.1076 22.81095 103.1076 
z
" clip-path="url(#pf224eea417)" style="fill: #f3f4f6; stroke: #2563eb; stroke-width: 1.4; stroke-linejoin: miter"/>
   </g>
   <g id="patch_3">
    <path d="M 118.608944 77.328 
Q 125.18791 77.328 130.201628 77.328 
" clip-path="url(#pf224eea417)" style="fill: none; stroke: #555555; stroke-width: 1.4; stroke-linecap: round"/>
    <path d="M 124.601628 74.528 
L 130.201628 77.328 
L 124.601628 80.128 
z
" clip-path="url(#pf224eea417)" style="fill: #555555; stroke: #555555; stroke-width: 1.4; stroke-linecap: round"/>
   </g>
   <g id="patch_4">
    <path d="M 137.20095 103.1076 
L 227.56905 103.1076 
Q 232.14465 103.1076 232.14465 99.7812 
L 232.14465 54.8748 
Q 232.14465 51.5484 227.56905 51.5484 
L 137.20095 51.5484 
Q 132.62535 51.5484 132.62535 54.8748 
L 132.62535 99.7812 
Q 132.62535 103.1076 137.20095 103.1076 
z
" clip-path="url(#pf224eea417)" style="fill: #f3f4f6; stroke: #16a34a; stroke-width: 1.4; stroke-linejoin: miter"/>
   </g>
   <g id="patch_5">
    <path d="M 232.998944 77.328 
Q 239.57791 77.328 244.591628 77.328 
" clip-path="url(#pf224eea417)" style="fill: none; stroke: #555555; stroke-width: 1.4; stroke-linecap: round"/>
    <path d="M 238.991628 74.528 
L 244.591628 77.328 
L 238.991628 80.128 
z
" clip-path="url(#pf224eea417)" style="fill: #555555; stroke: #555555; stroke-width: 1.4; stroke-linecap: round"/>
   </g>
   <g id="patch_6">
    <path d="M 251.59095 103.1076 
L 341.95905 103.1076 
Q 346.53465 103.1076 346.53465 99.7812 
L 346.53465 54.8748 
Q 346.53465 51.5484 341.95905 51.5484 
L 251.59095 51.5484 
Q 247.01535 51.5484 247.01535 54.8748 
L 247.01535 99.7812 
Q 247.01535 103.1076 251.59095 103.1076 
z
" clip-path="url(#pf224eea417)" style="fill: #f3f4f6; stroke: #ea580c; stroke-width: 1.4; stroke-linejoin: miter"/>
   </g>
   <g id="patch_7">
    <path d="M 347.388944 77.328 
Q 353.96791 77.328 358.981628 77.328 
" clip-path="url(#pf224eea417)" style="fill: none; stroke: #555555; stroke-width: 1.4; stroke-linecap: round"/>
    <path d="M 353.381628 74.528 
L 358.981628 77.328 
L 353.381628 80.128 
z
" clip-path="url(#pf224eea417)" style="fill: #555555; stroke: #555555; stroke-width: 1.4; stroke-linecap: round"/>
   </g>
   <g id="patch_8">
    <path d="M 365.98095 103.1076 
L 456.34905 103.1076 
Q 460.92465 103.1076 460.92465 99.7812 
L 460.92465 54.8748 
Q 460.92465 51.5484 456.34905 51.5484 
L 365.98095 51.5484 
Q 361.40535 51.5484 361.40535 54.8748 
L 361.40535 99.7812 
Q 361.40535 103.1076 365.98095 103.1076 
z
" clip-path="url(#pf224eea417)" style="fill: #f3f4f6; stroke: #7c3aed; stroke-width: 1.4; stroke-linejoin: miter"/>
   </g>
   <g id="patch_9">
    <path d="M 457.781552 102.276 
Q 239.578807 102.276 22.94131 102.276 
" clip-path="url(#pf224eea417)" style="fill: none; stroke: #ea580c; stroke-width: 1.4; stroke-linecap: round"/>
    <path d="M 28.54131 105.076 
L 22.94131 102.276 
L 28.54131 99.476 
z
" clip-path="url(#pf224eea417)" style="fill: #ea580c; stroke: #ea580c; stroke-width: 1.4; stroke-linecap: round"/>
   </g>
   <g id="text_1">
    <text style="font-weight: 700; font-size: 10.5px; font-family: 'Microsoft JhengHei', 'Segoe UI Emoji', sans-serif; text-anchor: middle; fill: #1f2937" x="239.58" y="29.588437" transform="rotate(-0 239.58 29.588437)">強化學習的獎懲循環</text>
   </g>
   <g id="text_2">
    <text style="font-size: 8.8px; font-family: 'Microsoft JhengHei', 'Segoe UI Emoji', sans-serif; text-anchor: middle; fill: #1f2937" x="67.995" y="79.751437" transform="rotate(-0 67.995 79.751437)">嘗試動作</text>
   </g>
   <g id="text_3">
    <text style="font-size: 8.8px; font-family: 'Microsoft JhengHei', 'Segoe UI Emoji', sans-serif; text-anchor: middle; fill: #1f2937" x="182.385" y="79.751437" transform="rotate(-0 182.385 79.751437)">觀察結果</text>
   </g>
   <g id="text_4">
    <text style="font-size: 8.8px; font-family: 'Microsoft JhengHei', 'Segoe UI Emoji', sans-serif; text-anchor: middle; fill: #1f2937" x="296.775" y="79.751437" transform="rotate(-0 296.775 79.751437)">給予獎懲</text>
   </g>
   <g id="text_5">
    <text style="font-size: 8.8px; font-family: 'Microsoft JhengHei', 'Segoe UI Emoji', sans-serif; text-anchor: middle; fill: #1f2937" x="411.165" y="79.751437" transform="rotate(-0 411.165 79.751437)">調整策略</text>
   </g>
   <g id="text_6">
    <text style="font-size: 8px; font-family: 'Microsoft JhengHei', 'Segoe UI Emoji', sans-serif; text-anchor: middle; fill: #ea580c" x="239.58" y="120.987" transform="rotate(-0 239.58 120.987)">循環調整</text>
   </g>
  </g>
 </g>
 <defs>
  <clipPath id="pf224eea417">
   <rect x="10.8" y="10.8" width="457.56" height="133.056"/>
  </clipPath>
 </defs>
</svg>
